<svg width="1225" height="540" viewBox="0 0 1225 540" fill="none" xmlns="http://www.w3.org/2000/svg">
<path fill-rule="evenodd" clip-rule="evenodd" d="M863.184 346.166H978.901L993.911 247.261H1017.65H1018.64L1068.9 346.166H1200.94L1138.2 228.469C1183.31 208.194 1214.84 173.083 1222.5 122.64L1222.65 121.652C1228.05 86.0463 1221.07 60.3328 1203.46 39.5624C1182.9 15.3293 1146.16 0 1084.84 0H915.716L863.184 346.166ZM0.00244141 346.164H118.876L157.797 89.2779L23.3355 195.833L0.00244141 346.164ZM481.19 31.1546C463.991 10.8803 435.476 0 387.508 0H270.459L183.327 69.0467L141.343 346.164H332.999C397.522 346.164 469.774 321.576 480.735 249.239C487.938 201.765 462.858 178.028 420.303 165.171C459.343 152.312 487.895 127.093 494.123 86.0463L494.274 85.0581C497.875 61.321 491.677 43.5192 481.19 31.1546ZM367.072 232.425L366.923 233.414C364.671 248.249 350.238 258.635 325.016 258.635H267.16L274.963 207.204H333.317C358.536 207.204 369.325 217.59 367.072 232.425ZM376.556 111.266L376.408 112.256C374.082 127.587 360.937 135.993 336.212 135.993H285.77L293.123 87.5306H343.07C367.797 87.5306 378.884 95.9365 376.556 111.266ZM658.879 345.63C765.696 345.63 858.799 269.047 871.977 173.083L872.107 172.138C885.287 76.1712 814.078 0.533586 707.263 0.533586C600.446 0.533586 507.345 77.1163 494.165 173.083L494.033 174.028C480.855 269.994 552.063 345.63 658.879 345.63ZM673.307 247.775C628.799 247.775 605.481 212.32 610.872 173.083L611.001 172.138C616.324 133.372 648.82 98.3902 692.833 98.3902C737.341 98.3902 760.659 133.845 755.27 173.083L755.141 174.028C749.816 212.794 717.32 247.775 673.307 247.775ZM1006.44 164.675L1016.73 96.9266H1067.17C1093.87 96.9266 1109.53 107.807 1106.15 130.06L1106 131.048C1102.77 152.312 1084.08 164.675 1056.39 164.675H1006.44Z" fill="#C8141E"/>
<path fill-rule="evenodd" clip-rule="evenodd" d="M28.3525 163.516L234.694 0L53.7336 0.00187882L28.3525 163.516Z" fill="#006E3C"/>
<path d="M565.531 539.998C545.137 539.998 529.49 534.619 518.595 523.862C507.697 513.106 502.251 497.88 502.251 478.183C502.251 450.104 510.142 427.334 525.928 409.872C541.714 392.411 563.157 383.68 590.257 383.68C610.512 383.68 626.018 389.057 636.774 399.815L608.906 431.454C601.082 424.749 592.911 421.397 584.389 421.397C577.267 421.397 571.224 424.26 566.264 429.987C561.306 435.716 557.847 442.526 555.891 450.417C553.937 458.31 552.958 466.868 552.958 476.088C552.958 493.549 559.106 502.28 571.397 502.28C581.315 502.28 591.514 498.577 601.992 491.175L619.803 523.443C604.575 534.48 586.486 539.998 565.531 539.998ZM633.47 538.32L657.357 388.29H705.553L696.542 444.027H727.135L736.145 388.29H784.339L760.452 538.32H712.256L721.477 480.069H690.885L681.665 538.32H633.47ZM977.001 539.998C956.607 539.998 940.962 534.619 930.064 523.862C919.169 513.106 913.72 497.88 913.72 478.183C913.72 450.104 921.613 427.334 937.399 409.872C953.183 392.411 974.628 383.68 1001.73 383.68C1021.98 383.68 1037.49 389.057 1048.25 399.815L1020.38 431.454C1012.55 424.749 1004.38 421.397 995.861 421.397C988.736 421.397 982.694 424.26 977.736 429.987C972.778 435.716 969.319 442.526 967.363 450.417C965.407 458.31 964.43 466.868 964.43 476.088C964.43 493.549 970.577 502.28 982.869 502.28C992.787 502.28 1002.99 498.577 1013.46 491.175L1031.27 523.443C1016.05 534.48 997.956 539.998 977.001 539.998ZM1197.49 388.29C1185.05 410.78 1168.71 434.389 1148.45 459.114L1177.16 538.32H1121.84L1111.37 495.156H1109.9L1097.95 508.356L1093.13 538.32H1044.94L1068.83 388.29H1117.02L1106.34 455.342L1107.8 446.333H1109.27C1122.96 429.29 1134.69 409.942 1144.47 388.29H1197.49Z" fill="#96989A"/>
<path d="M785.935 537.666H885.865L891.575 500.276C861.679 500.276 821.54 500.294 791.641 500.294L785.935 537.666ZM879.263 480.518L884.648 445.249H800.045L794.69 480.311C824.148 480.399 849.83 480.518 879.263 480.518ZM902.014 426.34L907.722 388.948H808.64L802.947 426.237C832.556 426.319 872.404 426.34 902.014 426.34Z" fill="#606062"/>
</svg>
