<svg width="1225" height="347" viewBox="0 0 1225 347" fill="none" xmlns="http://www.w3.org/2000/svg">
<path fill-rule="evenodd" clip-rule="evenodd" d="M863.182 346.166H978.899L993.909 247.261H1017.65H1018.64L1068.9 346.166H1200.94L1138.2 228.469C1183.31 208.194 1214.84 173.083 1222.5 122.64L1222.65 121.652C1228.05 86.0463 1221.07 60.3328 1203.46 39.5624C1182.9 15.3293 1146.16 0 1084.84 0H915.714L863.182 346.166ZM0 346.164H118.874L157.795 89.2779L23.3331 195.833L0 346.164ZM481.188 31.1546C463.989 10.8803 435.474 0 387.506 0H270.457L183.325 69.0467L141.341 346.164H332.997C397.52 346.164 469.772 321.576 480.733 249.239C487.936 201.765 462.856 178.028 420.301 165.171C459.341 152.312 487.893 127.093 494.121 86.0463L494.272 85.0581C497.873 61.321 491.675 43.5192 481.188 31.1546ZM367.07 232.425L366.921 233.414C364.669 248.249 350.236 258.635 325.014 258.635H267.158L274.961 207.204H333.315C358.534 207.204 369.323 217.59 367.07 232.425ZM376.554 111.266L376.406 112.256C374.08 127.587 360.935 135.993 336.21 135.993H285.768L293.121 87.5306H343.068C367.795 87.5306 378.882 95.9365 376.554 111.266ZM658.877 345.63C765.694 345.63 858.797 269.047 871.975 173.083L872.105 172.138C885.285 76.1712 814.076 0.533586 707.261 0.533586C600.444 0.533586 507.343 77.1163 494.163 173.083L494.031 174.028C480.853 269.994 552.061 345.63 658.877 345.63ZM673.305 247.775C628.797 247.775 605.479 212.32 610.87 173.083L610.999 172.138C616.322 133.372 648.818 98.3902 692.831 98.3902C737.339 98.3902 760.657 133.845 755.268 173.083L755.139 174.028C749.814 212.794 717.318 247.775 673.305 247.775ZM1006.44 164.675L1016.73 96.9266H1067.17C1093.87 96.9266 1109.53 107.807 1106.15 130.06L1106 131.048C1102.77 152.312 1084.08 164.675 1056.39 164.675H1006.44Z" fill="#C8141E"/>
<path fill-rule="evenodd" clip-rule="evenodd" d="M28.3501 163.516L234.692 0L53.7312 0.00187882L28.3501 163.516Z" fill="#006E3C"/>
</svg>
